<svg xmlns="http://www.w3.org/2000/svg" viewBox="0 0 32 32" fill="none">
  <rect width="32" height="32" rx="8" fill="#0C4A6E"/>
  <path d="M16 6c-3.5 0-6 2-7 4-.8 1.6-.5 3 0 4 .3.6.8 1 1.5 1.2.5.2 1 .1 1.5-.2l1-1c.5-.5 1.2-.8 2-.8h2c.8 0 1.5.3 2 .8l1 1c.5.3 1 .4 1.5.2.7-.2 1.2-.6 1.5-1.2.5-1 .8-2.4 0-4-1-2-3.5-4-7-4z" fill="white" opacity="0.9"/>
  <circle cx="12.5" cy="11" r="1.8" fill="#38BDF8"/>
  <circle cx="19.5" cy="11" r="1.8" fill="#38BDF8"/>
  <path d="M10 20c0 0 2 5 6 5s6-5 6-5" stroke="#38BDF8" stroke-width="1.5" stroke-linecap="round" fill="none"/>
  <path d="M13 22c0 0 1 2 3 2s3-2 3-2" stroke="#38BDF8" stroke-width="1" stroke-linecap="round" fill="none" opacity="0.6"/>
</svg>
